<mxfile host="app.diagrams.net" modified="2024-01-03T09:03:22.363Z" agent="Mozilla/5.0 (Windows NT 10.0; Win64; x64) AppleWebKit/537.36 (KHTML, like Gecko) Chrome/120.0.0.0 Safari/537.36" version="21.6.8" etag="7JAwWaP3xTANpfl27l8w" type="github">
  <diagram name="第 1 页" id="EoqZy2WCoEwOet_-goOX">
    <mxGraphModel>
      <root>
        <mxCell id="0" />
        <mxCell id="1" parent="0" />
      </root>
    </mxGraphModel>
  </diagram>
</mxfile>
